 <svg  version="1.0" xmlns="http://www.w3.org/2000/svg"  width="1350.000000pt" height="1350.000000pt" viewBox="0 0 1350.000000 1350.000000"  preserveAspectRatio="xMidYMid meet">  <g transform="translate(0.000000,1350.000000) scale(0.100000,-0.100000)" fill="#000000" stroke="none"> <path d="M187 13334 c-3 -4 -6 -3005 -7 -6670 l0 -6664 40 0 40 0 2 6633 3 6632 6469 3 c5169 2 6471 0 6478 -10 4 -7 8 -2993 8 -6635 l0 -6623 35 0 35 0 -2 6668 -3 6667 -6546 3 c-3600 1 -6548 -1 -6552 -4z"/> <path d="M307 13213 c-4 -3 -7 -2978 -7 -6610 l0 -6603 6435 0 6435 0 -2 6607 -3 6608 -6426 3 c-3534 1 -6429 -1 -6432 -5z m7558 -4216 c80 -37 141 -112 170 -212 16 -56 17 -124 11 -1055 -5 -688 -10 -1014 -18 -1058 -10 -54 -19 -71 -65 -121 -39 -44 -65 -62 -102 -75 -73 -23 -108 -19 -39 5 71 25 141 86 169 147 21 47 21 49 20 1067 -1 561 -4 1036 -8 1055 -16 92 -65 162 -139 200 l-49 25 -1075 0 -1075 0 -45 -23 c-77 -40 -123 -98 -143 -177 -3 -11 -7 -490 -9 -1065 l-3 -1045 22 -40 c29 -52 41 -65 84 -98 75 -57 75 -57 791 -57 427 0 659 -3 663 -10 4 -7 -225 -10 -679 -10 l-686 0 -63 30 c-47 22 -72 42 -98 77 -68 96 -64 11 -66 1176 l-3 1058 25 52 c41 84 87 129 166 157 52 19 84 20 1129 17 1020 -2 1077 -3 1115 -20z m-1774 -334 c39 -19 51 -32 80 -87 21 -38 21 -59 4 -141 -6 -29 1 -39 115 -153 90 -89 121 -126 116 -139 -5 -13 -33 10 -130 105 -80 80 -130 122 -144 122 -12 0 -40 -7 -62 -16 -72 -29 -161 9 -200 87 -71 139 81 292 221 222z m1450 -8 c69 -44 99 -111 80 -176 -27 -91 -109 -139 -201 -118 -24 6 -50 15 -57 21 -9 7 -43 -19 -135 -108 -67 -66 -128 -126 -135 -134 -11 -13 -14 -13 -23 0 -8 12 16 41 116 140 119 119 125 127 120 157 -3 18 -9 48 -12 67 -9 51 36 130 91 158 48 25 109 22 156 -7z m-635 -408 c0 -352 3 -420 15 -428 8 -5 63 -9 122 -8 59 1 111 -1 114 -5 3 -3 -5 -16 -18 -29 -13 -12 -44 -45 -68 -72 -24 -28 -87 -97 -141 -155 -53 -58 -116 -126 -140 -152 -24 -27 -47 -48 -51 -48 -9 0 -54 44 -113 111 -22 24 -81 89 -131 144 -147 159 -170 186 -170 198 0 9 31 11 108 8 74 -2 112 1 122 9 13 11 15 75 15 431 l0 419 168 -2 167 -3 1 -418z m-468 146 c-4 -19 -65 -56 -79 -48 -18 12 -8 32 24 47 43 21 59 21 55 1z m650 -2 c20 -8 32 -20 32 -32 0 -10 -5 -19 -10 -19 -13 0 -62 31 -72 44 -8 11 0 29 10 23 4 -2 22 -9 40 -16z m-898 -207 c0 -8 -11 -30 -24 -47 -22 -30 -48 -82 -74 -152 -11 -28 -21 -78 -43 -210 -6 -37 -7 -22 -4 55 3 70 12 129 26 175 20 62 33 89 85 173 17 26 34 29 34 6z m1128 -4 c36 -58 71 -131 88 -185 27 -85 27 -333 1 -420 -18 -59 -46 -125 -58 -135 -3 -3 -17 -25 -32 -50 -16 -26 -27 -38 -27 -27 0 9 11 35 24 56 28 44 48 89 78 176 17 48 21 83 21 185 0 109 -4 134 -27 200 -14 41 -44 105 -66 141 -22 37 -40 70 -40 73 0 14 26 4 38 -14z m-1244 -538 c4 -30 11 -61 16 -70 4 -10 18 -42 30 -72 12 -30 33 -69 46 -87 13 -17 24 -37 24 -44 0 -35 -77 81 -113 171 -19 48 -36 197 -19 170 5 -8 12 -39 16 -68z m331 -233 c4 -6 -53 -71 -126 -145 -118 -119 -159 -152 -159 -127 0 7 271 283 277 283 1 0 5 -5 8 -11z m807 -124 c130 -132 149 -155 131 -155 -10 0 -283 273 -283 283 0 21 33 -6 152 -128z m-770 -111 c29 -14 61 -30 71 -35 35 -19 113 -32 222 -38 116 -6 114 -21 -3 -21 -111 0 -352 73 -352 107 0 17 0 17 62 -13z m658 14 c0 -18 -144 -75 -205 -82 -56 -6 -44 1 50 30 33 10 80 28 105 41 54 27 50 26 50 11z m-1089 -40 c1 -7 1 -65 0 -129 -1 -78 3 -120 12 -132 11 -15 79 -17 713 -23 l702 -7 17 26 c14 22 17 47 15 139 -2 62 -2 119 -1 126 1 9 15 12 49 10 l47 -3 3 -189 c1 -104 -1 -193 -6 -198 -4 -4 -377 -8 -827 -8 l-820 0 -3 200 -2 200 50 0 c33 0 50 -4 51 -12z m1345 -689 c3 -5 -66 -9 -153 -9 -98 0 -153 4 -144 9 19 12 290 11 297 0z m114 1 c11 -7 4 -10 -25 -10 -29 0 -36 3 -25 10 8 5 20 10 25 10 6 0 17 -5 25 -10z m170 0 c0 -5 -12 -10 -27 -10 -22 0 -25 2 -13 10 20 13 40 13 40 0z m-2094 -721 c45 -38 57 -137 21 -190 -24 -36 -49 -46 -117 -48 -67 -1 -111 26 -128 79 -25 74 2 140 68 172 23 12 138 2 156 -13z m2062 -50 c2 -9 -16 -38 -40 -65 -24 -26 -67 -75 -97 -108 -30 -34 -69 -78 -88 -99 -19 -21 -73 -81 -120 -135 -48 -53 -90 -99 -93 -102 -4 -3 -10 -14 -14 -26 -5 -15 25 -62 131 -206 76 -102 167 -227 203 -278 36 -51 91 -128 123 -172 32 -43 55 -83 52 -88 -4 -6 -68 -10 -145 -10 l-138 0 -24 30 c-12 16 -50 68 -83 116 -118 169 -258 359 -284 387 l-27 28 -85 -92 -84 -93 -5 -185 -5 -186 -115 0 -115 0 0 645 0 645 115 0 115 0 5 -289 c3 -196 9 -291 16 -293 6 -2 60 54 120 124 60 70 149 173 198 228 49 55 115 130 148 167 l60 67 116 4 c157 4 156 4 160 -14z m-3391 3 c6 -4 24 -25 39 -47 15 -22 60 -87 99 -145 39 -58 93 -136 120 -175 27 -38 61 -88 75 -110 15 -22 44 -66 66 -98 21 -32 44 -66 49 -75 39 -64 147 -221 160 -232 13 -11 15 32 15 426 0 242 4 445 8 452 6 9 37 12 118 10 l109 -3 0 -645 0 -645 -125 0 -125 0 -66 100 c-36 55 -142 214 -235 353 -93 140 -176 264 -184 277 -75 117 -116 168 -131 160 -4 -3 -8 -202 -8 -442 -1 -241 -5 -441 -10 -446 -4 -4 -55 -6 -112 -5 l-104 3 -3 635 c-1 349 0 641 3 648 5 14 221 18 242 4z m2158 -427 l0 -110 -85 -5 c-117 -8 -183 -44 -218 -120 -14 -29 -17 -85 -22 -330 l-5 -295 -115 0 -115 0 0 475 0 475 115 0 115 0 5 -58 c3 -31 8 -58 12 -60 4 -1 18 13 31 31 59 79 126 112 222 109 l60 -2 0 -110z m-810 -385 l0 -475 -115 0 -115 0 -3 465 c-1 256 0 471 3 478 3 9 33 12 117 10 l113 -3 0 -475z m2385 430 c10 -25 32 -92 50 -150 18 -58 38 -121 45 -140 7 -19 20 -60 29 -90 9 -30 29 -98 45 -150 17 -52 31 -103 33 -113 2 -10 8 -19 13 -20 10 -1 27 44 60 158 10 33 23 78 30 100 6 22 20 67 30 100 9 33 23 76 30 95 7 19 20 62 30 95 10 33 26 83 35 110 l18 50 118 3 c64 1 121 -1 125 -5 8 -8 0 -36 -41 -143 -12 -30 -25 -66 -30 -80 -5 -14 -18 -50 -30 -80 -12 -30 -25 -66 -30 -80 -5 -14 -18 -50 -30 -80 -12 -30 -25 -66 -30 -80 -5 -14 -18 -50 -30 -80 -12 -30 -25 -68 -30 -85 -5 -16 -18 -55 -30 -85 -40 -105 -51 -135 -60 -165 -47 -165 -131 -283 -234 -330 -51 -23 -70 -26 -168 -26 -142 0 -145 2 -130 101 13 89 21 100 72 93 67 -9 128 14 162 61 26 35 29 48 25 91 -2 28 -14 75 -26 105 -12 30 -26 66 -31 80 -5 14 -18 50 -30 80 -12 30 -25 66 -30 80 -5 14 -18 50 -30 80 -12 30 -25 66 -30 80 -5 14 -18 50 -30 80 -12 30 -25 66 -30 80 -5 14 -18 50 -30 80 -12 30 -25 66 -30 80 -5 14 -18 49 -29 79 -11 30 -18 58 -15 63 3 5 60 7 126 6 l119 -3 19 -45z m1036 33 c3 -10 12 -34 19 -53 7 -19 20 -60 29 -90 9 -30 30 -98 46 -150 17 -52 38 -120 46 -150 9 -30 22 -71 29 -90 7 -19 21 -64 31 -100 9 -36 20 -69 24 -73 7 -7 23 40 67 193 9 30 22 73 28 95 7 22 20 67 30 100 9 33 23 76 30 95 7 19 20 62 30 95 24 83 37 118 48 133 11 14 232 18 241 3 6 -9 -3 -41 -34 -121 -12 -30 -25 -66 -30 -80 -5 -14 -18 -50 -30 -80 -12 -30 -25 -66 -30 -80 -5 -14 -18 -50 -30 -80 -12 -30 -24 -66 -27 -80 -3 -14 -12 -34 -19 -45 -8 -11 -14 -29 -14 -40 0 -11 -6 -29 -14 -40 -7 -11 -16 -31 -19 -45 -3 -14 -15 -50 -27 -80 -12 -30 -24 -66 -27 -80 -3 -14 -10 -30 -15 -37 -6 -7 -14 -27 -18 -45 -44 -177 -148 -323 -257 -360 -55 -19 -246 -25 -272 -9 -11 7 -13 26 -8 86 7 97 14 105 80 98 69 -7 117 14 156 68 34 46 38 81 17 131 -13 31 -22 53 -61 158 -8 22 -22 58 -30 80 -8 22 -22 58 -30 80 -8 22 -21 57 -29 78 -8 20 -21 56 -30 80 -9 23 -23 60 -31 82 -8 22 -22 58 -30 80 -8 22 -22 58 -30 80 -39 105 -48 127 -61 158 -8 18 -12 38 -9 43 4 5 62 9 131 9 110 0 125 -2 130 -17z m3917 -4500 c24 -6 21 -23 -4 -23 -18 0 -20 -2 -8 -16 11 -14 13 -14 21 0 12 22 30 20 62 -7 24 -21 26 -27 16 -51 -11 -30 -33 -30 -39 0 -4 21 -20 44 -30 44 -4 0 -6 -13 -3 -30 2 -16 10 -30 18 -30 10 0 11 -6 4 -25 -10 -26 -1 -38 32 -40 18 -2 21 4 19 40 -1 11 3 27 9 35 9 13 11 13 20 0 5 -8 10 -25 10 -38 0 -12 6 -31 12 -42 10 -15 10 -22 0 -32 -9 -9 -12 -7 -12 12 0 19 -2 22 -9 10 -6 -8 -7 -18 -5 -22 3 -5 7 -24 9 -43 2 -27 -4 -40 -30 -67 -67 -67 -64 -66 -139 -59 -5 1 -3 8 4 16 11 13 8 15 -13 15 -14 0 -33 -8 -43 -17 -17 -17 -16 -18 14 -21 18 -2 32 -7 32 -13 0 -5 -45 -9 -100 -9 -60 0 -100 4 -100 10 0 6 10 11 23 11 l22 2 -23 4 c-15 3 -22 10 -18 19 3 9 -1 14 -14 14 -11 0 -20 5 -20 10 0 13 57 13 65 0 4 -6 15 -4 29 5 16 11 45 14 99 13 69 -2 76 -4 71 -20 -4 -15 1 -18 26 -18 28 0 32 3 27 21 -4 14 -1 19 7 16 19 -8 52 35 59 76 5 32 3 37 -14 37 -10 0 -19 -4 -19 -9 0 -14 -60 -78 -61 -66 0 6 -1 58 -2 117 -1 100 -2 107 -22 110 -12 2 -19 10 -19 21 1 12 -5 17 -22 17 -16 0 -22 -4 -18 -14 4 -10 -2 -16 -18 -18 -20 -3 -23 -8 -21 -45 l2 -43 -25 17 c-19 12 -40 15 -94 10 -39 -3 -70 -3 -70 1 0 4 9 15 20 25 13 10 17 23 13 34 -6 16 -5 16 10 4 13 -10 17 -10 17 -1 0 9 3 10 14 1 10 -9 15 -8 19 3 7 19 -3 26 -29 21 -10 -2 -27 -4 -38 -4 -12 -1 -16 -6 -12 -17 5 -12 1 -14 -17 -9 -21 7 -21 6 -3 -7 31 -24 11 -41 -40 -33 -43 6 -44 5 -44 -21 0 -22 4 -25 21 -21 15 4 19 2 15 -8 -2 -7 2 -19 9 -25 12 -10 17 -7 26 14 17 37 33 33 25 -6 -7 -36 -7 -37 -5 -105 1 -28 -3 -49 -10 -51 -25 -8 -11 -40 22 -47 28 -6 30 -8 12 -15 -31 -13 -40 -12 -66 10 -62 51 -80 75 -76 103 2 17 -1 27 -9 27 -15 0 -22 25 -16 58 6 31 18 27 26 -8 3 -20 14 -34 30 -40 31 -11 41 -29 27 -43 -14 -14 -14 -30 -1 -22 6 4 16 2 23 -4 9 -7 13 -5 13 9 0 10 -4 16 -8 14 -4 -3 -8 4 -8 16 0 13 4 19 12 14 7 -4 8 -3 4 4 -4 6 -13 9 -21 6 -12 -5 -14 1 -11 25 2 21 -1 31 -10 31 -22 0 -54 33 -54 56 0 12 16 40 36 63 30 34 41 40 62 34 19 -4 23 -3 17 7 -4 7 -2 16 5 20 13 8 273 11 303 3z"/> <path d="M5972 8612 c-36 -20 -72 -67 -72 -95 0 -10 9 -35 20 -56 19 -39 58 -61 104 -61 34 0 83 36 102 75 16 34 16 38 -2 76 -12 27 -30 47 -55 60 -46 23 -55 23 -97 1z"/> <path d="M7398 8612 c-57 -35 -73 -100 -38 -157 20 -33 31 -40 81 -55 43 -13 101 19 123 68 24 52 16 86 -30 129 -40 38 -89 43 -136 15z"/> <path d="M12760 805 c0 -8 5 -15 10 -15 6 0 10 7 10 15 0 8 -4 15 -10 15 -5 0 -10 -7 -10 -15z"/> <path d="M12723 768 c15 -23 40 -24 35 -1 -2 9 -13 17 -24 18 -19 1 -20 -1 -11 -17z"/> </g> </svg> 